<svg width="160" height="110" viewBox="0 0 160 110" fill="none" xmlns="http://www.w3.org/2000/svg">
<path d="M0 30C0 18.9543 8.95431 10 20 10H140C151.046 10 160 18.9543 160 30V90C160 101.046 151.046 110 140 110H20C8.95431 110 0 101.046 0 90V30Z" fill="white"/>
<path fill-rule="evenodd" clip-rule="evenodd" d="M140 13H20C10.6112 13 3 20.6112 3 30V90C3 99.3888 10.6112 107 20 107H140C149.389 107 157 99.3888 157 90V30C157 20.6112 149.389 13 140 13ZM20 10C8.95431 10 0 18.9543 0 30V90C0 101.046 8.95431 110 20 110H140C151.046 110 160 101.046 160 90V30C160 18.9543 151.046 10 140 10H20Z" fill="black"/>
<path d="M40 15C40 6.71573 46.7157 0 55 0H105C113.284 0 120 6.71573 120 15C120 23.2843 113.284 30 105 30H55C46.7157 30 40 23.2843 40 15Z" fill="white"/>
<path fill-rule="evenodd" clip-rule="evenodd" d="M105 3H55C48.3726 3 43 8.37258 43 15C43 21.6274 48.3726 27 55 27H105C111.627 27 117 21.6274 117 15C117 8.37258 111.627 3 105 3ZM55 0C46.7157 0 40 6.71573 40 15C40 23.2843 46.7157 30 55 30H105C113.284 30 120 23.2843 120 15C120 6.71573 113.284 0 105 0H55Z" fill="black"/>
<path d="M38 13H123V36H38V13Z" fill="white"/>
<path d="M120 62C120 84.0914 102.091 102 80 102C57.9086 102 40 84.0914 40 62C40 39.9086 57.9086 22 80 22C102.091 22 120 39.9086 120 62Z" fill="white"/>
<path fill-rule="evenodd" clip-rule="evenodd" d="M80 99C100.435 99 117 82.4345 117 62C117 41.5655 100.435 25 80 25C59.5655 25 43 41.5655 43 62C43 82.4345 59.5655 99 80 99ZM80 102C102.091 102 120 84.0914 120 62C120 39.9086 102.091 22 80 22C57.9086 22 40 39.9086 40 62C40 84.0914 57.9086 102 80 102Z" fill="black"/>
<path d="M110 62C110 78.5685 96.5685 92 80 92C63.4315 92 50 78.5685 50 62C50 45.4315 63.4315 32 80 32C96.5685 32 110 45.4315 110 62Z" fill="white"/>
<path fill-rule="evenodd" clip-rule="evenodd" d="M80 89C94.9117 89 107 76.9117 107 62C107 47.0883 94.9117 35 80 35C65.0883 35 53 47.0883 53 62C53 76.9117 65.0883 89 80 89ZM80 92C96.5685 92 110 78.5685 110 62C110 45.4315 96.5685 32 80 32C63.4315 32 50 45.4315 50 62C50 78.5685 63.4315 92 80 92Z" fill="black"/>
<path d="M145 27C145 29.7614 142.761 32 140 32C137.239 32 135 29.7614 135 27C135 24.2386 137.239 22 140 22C142.761 22 145 24.2386 145 27Z" fill="white"/>
<path fill-rule="evenodd" clip-rule="evenodd" d="M140 29C141.105 29 142 28.1046 142 27C142 25.8954 141.105 25 140 25C138.895 25 138 25.8954 138 27C138 28.1046 138.895 29 140 29ZM140 32C142.761 32 145 29.7614 145 27C145 24.2386 142.761 22 140 22C137.239 22 135 24.2386 135 27C135 29.7614 137.239 32 140 32Z" fill="black"/>
</svg>
