<svg width="58" height="103" viewBox="0 0 58 103" fill="none" xmlns="http://www.w3.org/2000/svg">
<path fill-rule="evenodd" clip-rule="evenodd" d="M4.3934 41.1061C-1.46447 46.964 -1.46447 56.4615 4.3934 62.3193L42.2086 100.135C45.5364 103.462 50.9317 103.462 54.2594 100.135C57.5871 96.8068 57.5871 91.4115 54.2594 88.0838L28.1942 62.0186C22.3363 56.1607 22.3363 46.6632 28.1942 40.8054L54.8161 14.1834C58.0608 10.9387 58.0608 5.67809 54.8161 2.43341C51.5715 -0.811264 46.3108 -0.811264 43.0661 2.43341L4.3934 41.1061Z" fill="white"/>
<path fill-rule="evenodd" clip-rule="evenodd" d="M6.51472 60.198L44.3299 98.0133C46.4861 100.169 49.9819 100.169 52.1381 98.0133C54.2942 95.8571 54.2942 92.3613 52.1381 90.2051L26.0729 64.1399C19.0434 57.1105 19.0434 45.7135 26.0729 38.684L52.6948 12.0621C54.7679 9.98899 54.7679 6.62783 52.6948 4.55473C50.6217 2.48163 47.2605 2.48163 45.1874 4.55473L6.51472 43.2275C1.82843 47.9137 1.82843 55.5117 6.51472 60.198ZM4.3934 62.3193C-1.46447 56.4615 -1.46447 46.964 4.3934 41.1061L43.0661 2.43341C46.3108 -0.811264 51.5715 -0.811264 54.8161 2.43341C58.0608 5.67809 58.0608 10.9387 54.8161 14.1834L28.1942 40.8054C22.3363 46.6632 22.3363 56.1607 28.1942 62.0186L54.2594 88.0838C57.5871 91.4115 57.5871 96.8068 54.2594 100.135C50.9317 103.462 45.5364 103.462 42.2086 100.135L4.3934 62.3193Z" fill="black"/>
</svg>
