<svg width="58" height="103" viewBox="0 0 58 103" fill="none" xmlns="http://www.w3.org/2000/svg">
<path fill-rule="evenodd" clip-rule="evenodd" d="M52.8561 61.5242C58.714 55.6664 58.714 46.1689 52.8561 40.311L15.0409 2.4958C11.7132 -0.831932 6.31784 -0.831933 2.9901 2.4958C-0.337627 5.82353 -0.337627 11.2188 2.9901 14.5466L29.0553 40.6118C34.9132 46.4697 34.9132 55.9671 29.0553 61.825L2.43338 88.447C-0.811287 91.6916 -0.811287 96.9523 2.43339 100.197C5.67806 103.442 10.9387 103.442 14.1834 100.197L52.8561 61.5242Z" fill="white"/>
<path fill-rule="evenodd" clip-rule="evenodd" d="M50.7348 42.4323L12.9196 4.61712C10.7634 2.46096 7.26758 2.46096 5.11142 4.61712C2.95527 6.77328 2.95527 10.2691 5.11142 12.4253L31.1766 38.4905C38.2061 45.5199 38.2061 56.9169 31.1767 63.9463L4.5547 90.5683C2.48161 92.6414 2.48161 96.0025 4.55471 98.0756C6.62781 100.149 9.98897 100.149 12.0621 98.0756L50.7348 59.4029C55.4211 54.7166 55.4211 47.1186 50.7348 42.4323ZM52.8561 40.311C58.714 46.1689 58.714 55.6664 52.8561 61.5242L14.1834 100.197C10.9387 103.442 5.67806 103.442 2.43339 100.197C-0.811287 96.9523 -0.811287 91.6916 2.43338 88.447L29.0553 61.825C34.9132 55.9671 34.9132 46.4697 29.0553 40.6118L2.9901 14.5466C-0.337627 11.2188 -0.337627 5.82353 2.9901 2.4958C6.31784 -0.831933 11.7132 -0.831932 15.0409 2.4958L52.8561 40.311Z" fill="black"/>
</svg>
