<svg width="108" height="24" viewBox="0 0 108 24" fill="none" xmlns="http://www.w3.org/2000/svg">
<path d="M24 12C24 18.6274 18.6274 24 12 24C5.37258 24 0 18.6274 0 12C0 5.37258 5.37258 0 12 0C18.6274 0 24 5.37258 24 12Z" fill="white"/>
<path fill-rule="evenodd" clip-rule="evenodd" d="M12 21C16.9706 21 21 16.9706 21 12C21 7.02944 16.9706 3 12 3C7.02944 3 3 7.02944 3 12C3 16.9706 7.02944 21 12 21ZM12 24C18.6274 24 24 18.6274 24 12C24 5.37258 18.6274 0 12 0C5.37258 0 0 5.37258 0 12C0 18.6274 5.37258 24 12 24Z" fill="black"/>
<path d="M66 12C66 18.6274 60.6274 24 54 24C47.3726 24 42 18.6274 42 12C42 5.37258 47.3726 0 54 0C60.6274 0 66 5.37258 66 12Z" fill="white"/>
<path fill-rule="evenodd" clip-rule="evenodd" d="M54 21C58.9706 21 63 16.9706 63 12C63 7.02944 58.9706 3 54 3C49.0294 3 45 7.02944 45 12C45 16.9706 49.0294 21 54 21ZM54 24C60.6274 24 66 18.6274 66 12C66 5.37258 60.6274 0 54 0C47.3726 0 42 5.37258 42 12C42 18.6274 47.3726 24 54 24Z" fill="black"/>
<path d="M108 12C108 18.6274 102.627 24 96 24C89.3726 24 84 18.6274 84 12C84 5.37258 89.3726 0 96 0C102.627 0 108 5.37258 108 12Z" fill="white"/>
<path fill-rule="evenodd" clip-rule="evenodd" d="M96 21C100.971 21 105 16.9706 105 12C105 7.02944 100.971 3 96 3C91.0294 3 87 7.02944 87 12C87 16.9706 91.0294 21 96 21ZM96 24C102.627 24 108 18.6274 108 12C108 5.37258 102.627 0 96 0C89.3726 0 84 5.37258 84 12C84 18.6274 89.3726 24 96 24Z" fill="black"/>
</svg>
