<svg width="103" height="93" viewBox="0 0 103 93" fill="none" xmlns="http://www.w3.org/2000/svg">
<path fill-rule="evenodd" clip-rule="evenodd" d="M72.9216 25H75C83.2843 25 90 31.7157 90 40V78C90 86.2843 83.2843 93 75 93H28C19.7157 93 13 86.2843 13 78V40C13 31.7157 19.7157 25 28 25H30.0784C35.1192 18.2917 42.8424 14 51.5 14C60.1576 14 67.8808 18.2917 72.9216 25Z" fill="white"/>
<path fill-rule="evenodd" clip-rule="evenodd" d="M71.4233 28L70.5233 26.8022C65.9943 20.7751 59.1266 17 51.5 17C43.8734 17 37.0057 20.7751 32.4767 26.8022L31.5767 28H28C21.3726 28 16 33.3726 16 40V78C16 84.6274 21.3726 90 28 90H75C81.6274 90 87 84.6274 87 78V40C87 33.3726 81.6274 28 75 28H71.4233ZM30.0784 25H28C19.7157 25 13 31.7157 13 40V78C13 86.2843 19.7157 93 28 93H75C83.2843 93 90 86.2843 90 78V40C90 31.7157 83.2843 25 75 25H72.9216C67.8808 18.2917 60.1576 14 51.5 14C42.8424 14 35.1192 18.2917 30.0784 25Z" fill="black"/>
<path fill-rule="evenodd" clip-rule="evenodd" d="M61.5242 4.3934C55.6664 -1.46447 46.1689 -1.46447 40.311 4.3934L2.4958 42.2086C-0.831933 45.5364 -0.831934 50.9317 2.4958 54.2594C5.82353 57.5871 11.2189 57.5871 14.5466 54.2594L40.6118 28.1942C46.4697 22.3363 55.9672 22.3363 61.825 28.1942L88.447 54.8161C91.6916 58.0608 96.9523 58.0608 100.197 54.8161C103.442 51.5715 103.442 46.3108 100.197 43.0661L61.5242 4.3934Z" fill="white"/>
<path fill-rule="evenodd" clip-rule="evenodd" d="M42.4323 6.51472L4.61712 44.3299C2.46096 46.4861 2.46096 49.9819 4.61712 52.1381C6.77328 54.2942 10.2691 54.2942 12.4253 52.1381L38.4905 26.0729C45.5199 19.0434 56.9169 19.0434 63.9463 26.0729L90.5683 52.6948C92.6414 54.7679 96.0025 54.7679 98.0756 52.6948C100.149 50.6217 100.149 47.2605 98.0756 45.1874L59.4029 6.51472C54.7166 1.82843 47.1186 1.82843 42.4323 6.51472ZM40.311 4.3934C46.1689 -1.46447 55.6664 -1.46447 61.5242 4.3934L100.197 43.0661C103.442 46.3108 103.442 51.5715 100.197 54.8161C96.9523 58.0608 91.6916 58.0608 88.447 54.8161L61.825 28.1942C55.9672 22.3363 46.4697 22.3363 40.6118 28.1942L14.5466 54.2594C11.2189 57.5871 5.82353 57.5871 2.4958 54.2594C-0.831934 50.9317 -0.831933 45.5364 2.4958 42.2086L40.311 4.3934Z" fill="black"/>
</svg>
