<svg width="100" height="101" viewBox="0 0 100 101" fill="none" xmlns="http://www.w3.org/2000/svg">
<path fill-rule="evenodd" clip-rule="evenodd" d="M27.8618 60.1554C28.1011 60.4244 28.3517 60.6868 28.6137 60.9421L54.1031 85.7782C57.491 89.0792 57.4909 94.5239 54.1031 97.8249C50.8374 101.007 45.6309 101.007 42.3652 97.8249L4.81291 61.2352C2.72531 59.2011 1.35894 56.7106 0.713778 54.0791C0.253542 52.9471 0 51.709 0 50.4117C0 49.0159 0.293501 47.6886 0.822154 46.4882C1.50543 44.0108 2.83568 41.6749 4.8129 39.7484L43.2187 2.32689C46.4029 -0.775688 51.4795 -0.775696 54.6637 2.32689C57.967 5.54551 57.967 10.8543 54.6637 14.0729L28.6137 39.4553C28.2151 39.8436 27.8429 40.2486 27.4969 40.668L90.2563 40.668C95.6376 40.668 100 45.0304 100 50.4117C100 55.793 95.6376 60.1554 90.2563 60.1554L27.8618 60.1554Z" fill="white"/>
<path fill-rule="evenodd" clip-rule="evenodd" d="M21.1787 57.1554L90.2563 57.1554C93.9807 57.1554 97 54.1361 97 50.4117C97 46.6872 93.9807 43.668 90.2563 43.668L21.1331 43.668L25.1827 38.7589C25.5977 38.2559 26.0436 37.7709 26.5201 37.3066L52.5701 11.9242C54.6649 9.88318 54.6649 6.51664 52.5701 4.47556C50.5509 2.50808 47.3316 2.50808 45.3124 4.47556L6.90651 41.8971C5.32082 43.4421 4.25976 45.3077 3.71417 47.2859L3.65595 47.497L3.56768 47.6974C3.20363 48.524 3 49.4401 3 50.4117C3 51.3151 3.17604 52.1699 3.49288 52.9493L3.57535 53.1521L3.62749 53.3648C4.14283 55.4668 5.23275 57.4556 6.90652 59.0865L44.4588 95.6762C46.5595 97.7232 49.9088 97.7232 52.0095 95.6762C54.1888 93.5528 54.1888 90.0503 52.0095 87.9269L26.5201 63.0908C26.2069 62.7856 25.9069 62.4715 25.6202 62.1491L21.1787 57.1554ZM28.6137 39.4553C28.2151 39.8436 27.8429 40.2486 27.4969 40.668L90.2563 40.668C95.6376 40.668 100 45.0304 100 50.4117C100 55.793 95.6376 60.1554 90.2563 60.1554L27.8618 60.1554C28.1011 60.4244 28.3517 60.6868 28.6137 60.9421L54.1031 85.7782C57.491 89.0792 57.4909 94.5239 54.1031 97.8249C50.8374 101.007 45.6309 101.007 42.3652 97.8249L4.81291 61.2352C2.72531 59.2011 1.35894 56.7106 0.713778 54.0791C0.253542 52.9471 0 51.709 0 50.4117C0 49.0159 0.293501 47.6886 0.822154 46.4882C1.50543 44.0108 2.83568 41.6749 4.8129 39.7484L43.2187 2.32689C46.4029 -0.775688 51.4795 -0.775696 54.6637 2.32689C57.967 5.54551 57.967 10.8543 54.6637 14.0729L28.6137 39.4553Z" fill="black"/>
</svg>
