<svg width="90" height="104" viewBox="0 0 90 104" fill="none" xmlns="http://www.w3.org/2000/svg">
<path d="M0 39C0 25.1929 11.1929 14 25 14H65C78.8071 14 90 25.1929 90 39V79C90 92.8071 78.8071 104 65 104H25C11.1929 104 0 92.8071 0 79V39Z" fill="white"/>
<path fill-rule="evenodd" clip-rule="evenodd" d="M65 17H25C12.8497 17 3 26.8497 3 39V79C3 91.1503 12.8497 101 25 101H65C77.1503 101 87 91.1503 87 79V39C87 26.8497 77.1503 17 65 17ZM25 14C11.1929 14 0 25.1929 0 39V79C0 92.8071 11.1929 104 25 104H65C78.8071 104 90 92.8071 90 79V39C90 25.1929 78.8071 14 65 14H25Z" fill="black"/>
<path d="M10 39C10 30.7157 16.7157 24 25 24H65C73.2843 24 80 30.7157 80 39V79C80 87.2843 73.2843 94 65 94H25C16.7157 94 10 87.2843 10 79V39Z" fill="white"/>
<path fill-rule="evenodd" clip-rule="evenodd" d="M65 27H25C18.3726 27 13 32.3726 13 39V79C13 85.6274 18.3726 91 25 91H65C71.6274 91 77 85.6274 77 79V39C77 32.3726 71.6274 27 65 27ZM25 24C16.7157 24 10 30.7157 10 39V79C10 87.2843 16.7157 94 25 94H65C73.2843 94 80 87.2843 80 79V39C80 30.7157 73.2843 24 65 24H25Z" fill="black"/>
<path d="M38 7.5C38 3.35786 41.3579 0 45.5 0C49.6421 0 53 3.35786 53 7.5V51.5C53 55.6421 49.6421 59 45.5 59C41.3579 59 38 55.6421 38 51.5V7.5Z" fill="white"/>
<path fill-rule="evenodd" clip-rule="evenodd" d="M50 51.5V7.5C50 5.01472 47.9853 3 45.5 3C43.0147 3 41 5.01472 41 7.5V51.5C41 53.9853 43.0147 56 45.5 56C47.9853 56 50 53.9853 50 51.5ZM45.5 0C41.3579 0 38 3.35786 38 7.5V51.5C38 55.6421 41.3579 59 45.5 59C49.6421 59 53 55.6421 53 51.5V7.5C53 3.35786 49.6421 0 45.5 0Z" fill="black"/>
</svg>
