<svg width="90" height="110" viewBox="0 0 90 110" fill="none" xmlns="http://www.w3.org/2000/svg">
<path d="M30 10C30 4.47715 34.4772 0 40 0H50C55.5228 0 60 4.47715 60 10V20C60 25.5228 55.5228 30 50 30H40C34.4772 30 30 25.5228 30 20V10Z" fill="white"/>
<path fill-rule="evenodd" clip-rule="evenodd" d="M50 3H40C36.134 3 33 6.13401 33 10V20C33 23.866 36.134 27 40 27H50C53.866 27 57 23.866 57 20V10C57 6.13401 53.866 3 50 3ZM40 0C34.4772 0 30 4.47715 30 10V20C30 25.5228 34.4772 30 40 30H50C55.5228 30 60 25.5228 60 20V10C60 4.47715 55.5228 0 50 0H40Z" fill="black"/>
<path d="M10 40C10 34.4772 14.4772 30 20 30H71C76.5229 30 81 34.4772 81 40V100C81 105.523 76.5229 110 71 110H20C14.4772 110 10 105.523 10 100V40Z" fill="white"/>
<path fill-rule="evenodd" clip-rule="evenodd" d="M71 33H20C16.134 33 13 36.134 13 40V100C13 103.866 16.134 107 20 107H71C74.866 107 78 103.866 78 100V40C78 36.134 74.866 33 71 33ZM20 30C14.4772 30 10 34.4772 10 40V100C10 105.523 14.4772 110 20 110H71C76.5229 110 81 105.523 81 100V40C81 34.4772 76.5229 30 71 30H20Z" fill="black"/>
<path d="M0 25C0 19.4772 4.47715 15 10 15H80C85.5229 15 90 19.4772 90 25V35C90 40.5228 85.5229 45 80 45H10C4.47715 45 0 40.5228 0 35V25Z" fill="white"/>
<path fill-rule="evenodd" clip-rule="evenodd" d="M80 18H10C6.13401 18 3 21.134 3 25V35C3 38.866 6.13401 42 10 42H80C83.866 42 87 38.866 87 35V25C87 21.134 83.866 18 80 18ZM10 15C4.47715 15 0 19.4772 0 25V35C0 40.5228 4.47715 45 10 45H80C85.5229 45 90 40.5228 90 35V25C90 19.4772 85.5229 15 80 15H10Z" fill="black"/>
<path d="M18 56.5C18 52.3579 21.3579 49 25.5 49C29.6421 49 33 52.3579 33 56.5V91.5C33 95.6421 29.6421 99 25.5 99C21.3579 99 18 95.6421 18 91.5V56.5Z" fill="white"/>
<path fill-rule="evenodd" clip-rule="evenodd" d="M30 91.5V56.5C30 54.0147 27.9853 52 25.5 52C23.0147 52 21 54.0147 21 56.5V91.5C21 93.9853 23.0147 96 25.5 96C27.9853 96 30 93.9853 30 91.5ZM25.5 49C21.3579 49 18 52.3579 18 56.5V91.5C18 95.6421 21.3579 99 25.5 99C29.6421 99 33 95.6421 33 91.5V56.5C33 52.3579 29.6421 49 25.5 49Z" fill="black"/>
<path d="M38 56.5C38 52.3579 41.3579 49 45.5 49C49.6421 49 53 52.3579 53 56.5V91.5C53 95.6421 49.6421 99 45.5 99C41.3579 99 38 95.6421 38 91.5V56.5Z" fill="white"/>
<path fill-rule="evenodd" clip-rule="evenodd" d="M50 91.5V56.5C50 54.0147 47.9853 52 45.5 52C43.0147 52 41 54.0147 41 56.5V91.5C41 93.9853 43.0147 96 45.5 96C47.9853 96 50 93.9853 50 91.5ZM45.5 49C41.3579 49 38 52.3579 38 56.5V91.5C38 95.6421 41.3579 99 45.5 99C49.6421 99 53 95.6421 53 91.5V56.5C53 52.3579 49.6421 49 45.5 49Z" fill="black"/>
<path d="M58 56.5C58 52.3579 61.3579 49 65.5 49C69.6421 49 73 52.3579 73 56.5V91.5C73 95.6421 69.6421 99 65.5 99C61.3579 99 58 95.6421 58 91.5V56.5Z" fill="white"/>
<path fill-rule="evenodd" clip-rule="evenodd" d="M70 91.5V56.5C70 54.0147 67.9853 52 65.5 52C63.0147 52 61 54.0147 61 56.5V91.5C61 93.9853 63.0147 96 65.5 96C67.9853 96 70 93.9853 70 91.5ZM65.5 49C61.3579 49 58 52.3579 58 56.5V91.5C58 95.6421 61.3579 99 65.5 99C69.6421 99 73 95.6421 73 91.5V56.5C73 52.3579 69.6421 49 65.5 49Z" fill="black"/>
</svg>
