<svg width="100" height="103" viewBox="0 0 100 103" fill="none" xmlns="http://www.w3.org/2000/svg">
<path fill-rule="evenodd" clip-rule="evenodd" d="M52.8562 61.5242C58.7141 55.6664 58.7141 46.1689 52.8562 40.311L15.041 2.4958C11.7133 -0.831932 6.31796 -0.831933 2.99023 2.4958C-0.337505 5.82353 -0.337505 11.2188 2.99023 14.5466L29.0554 40.6118C34.9133 46.4697 34.9133 55.9671 29.0555 61.825L2.43351 88.447C-0.811165 91.6916 -0.811165 96.9523 2.43351 100.197C5.67818 103.442 10.9388 103.442 14.1835 100.197L52.8562 61.5242Z" fill="white"/>
<path fill-rule="evenodd" clip-rule="evenodd" d="M50.7349 42.4323L12.9197 4.61712C10.7635 2.46096 7.2677 2.46096 5.11155 4.61712C2.95539 6.77328 2.95539 10.2691 5.11155 12.4253L31.1768 38.4905C38.2062 45.5199 38.2062 56.9169 31.1768 63.9463L4.55482 90.5683C2.48173 92.6414 2.48173 96.0025 4.55483 98.0756C6.62793 100.149 9.98909 100.149 12.0622 98.0756L50.7349 59.4029C55.4212 54.7166 55.4212 47.1186 50.7349 42.4323ZM52.8562 40.311C58.7141 46.1689 58.7141 55.6664 52.8562 61.5242L14.1835 100.197C10.9388 103.442 5.67818 103.442 2.43351 100.197C-0.811165 96.9523 -0.811165 91.6916 2.43351 88.447L29.0555 61.825C34.9133 55.9671 34.9133 46.4697 29.0554 40.6118L2.99023 14.5466C-0.337505 11.2188 -0.337505 5.82353 2.99023 2.4958C6.31796 -0.831933 11.7133 -0.831932 15.041 2.4958L52.8562 40.311Z" fill="black"/>
<path fill-rule="evenodd" clip-rule="evenodd" d="M73.8562 61.5242C79.7141 55.6664 79.7141 46.1689 73.8562 40.311L36.041 2.4958C32.7133 -0.831932 27.318 -0.831933 23.9902 2.4958C20.6625 5.82353 20.6625 11.2188 23.9902 14.5466L50.0554 40.6118C55.9133 46.4697 55.9133 55.9671 50.0555 61.825L23.4335 88.447C20.1888 91.6916 20.1888 96.9523 23.4335 100.197C26.6782 103.442 31.9388 103.442 35.1835 100.197L73.8562 61.5242Z" fill="white"/>
<path fill-rule="evenodd" clip-rule="evenodd" d="M71.7349 42.4323L33.9197 4.61712C31.7635 2.46096 28.2677 2.46096 26.1115 4.61712C23.9554 6.77328 23.9554 10.2691 26.1115 12.4253L52.1768 38.4905C59.2062 45.5199 59.2062 56.9169 52.1768 63.9463L25.5548 90.5683C23.4817 92.6414 23.4817 96.0025 25.5548 98.0756C27.6279 100.149 30.9891 100.149 33.0622 98.0756L71.7349 59.4029C76.4212 54.7166 76.4212 47.1186 71.7349 42.4323ZM73.8562 40.311C79.7141 46.1689 79.7141 55.6664 73.8562 61.5242L35.1835 100.197C31.9388 103.442 26.6782 103.442 23.4335 100.197C20.1888 96.9523 20.1888 91.6916 23.4335 88.447L50.0555 61.825C55.9133 55.9671 55.9133 46.4697 50.0554 40.6118L23.9902 14.5466C20.6625 11.2188 20.6625 5.82353 23.9902 2.4958C27.318 -0.831933 32.7133 -0.831932 36.041 2.4958L73.8562 40.311Z" fill="black"/>
<path fill-rule="evenodd" clip-rule="evenodd" d="M94.8562 61.5242C100.714 55.6664 100.714 46.1689 94.8562 40.311L57.041 2.4958C53.7133 -0.831932 48.318 -0.831933 44.9902 2.4958C41.6625 5.82353 41.6625 11.2188 44.9902 14.5466L71.0554 40.6118C76.9133 46.4697 76.9133 55.9671 71.0555 61.825L44.4335 88.447C41.1888 91.6916 41.1888 96.9523 44.4335 100.197C47.6782 103.442 52.9388 103.442 56.1835 100.197L94.8562 61.5242Z" fill="white"/>
<path fill-rule="evenodd" clip-rule="evenodd" d="M92.7349 42.4323L54.9197 4.61712C52.7635 2.46096 49.2677 2.46096 47.1115 4.61712C44.9554 6.77328 44.9554 10.2691 47.1115 12.4253L73.1768 38.4905C80.2062 45.5199 80.2062 56.9169 73.1768 63.9463L46.5548 90.5683C44.4817 92.6414 44.4817 96.0025 46.5548 98.0756C48.6279 100.149 51.9891 100.149 54.0622 98.0756L92.7349 59.4029C97.4212 54.7166 97.4212 47.1186 92.7349 42.4323ZM94.8562 40.311C100.714 46.1689 100.714 55.6664 94.8562 61.5242L56.1835 100.197C52.9388 103.442 47.6782 103.442 44.4335 100.197C41.1888 96.9523 41.1888 91.6916 44.4335 88.447L71.0555 61.825C76.9133 55.9671 76.9133 46.4697 71.0554 40.6118L44.9902 14.5466C41.6625 11.2188 41.6625 5.82353 44.9902 2.4958C48.318 -0.831933 53.7133 -0.831932 57.041 2.4958L94.8562 40.311Z" fill="black"/>
</svg>
