<svg width="100" height="103" viewBox="0 0 100 103" fill="none" xmlns="http://www.w3.org/2000/svg">
<path fill-rule="evenodd" clip-rule="evenodd" d="M46.3933 41.1061C40.5354 46.964 40.5354 56.4615 46.3933 62.3193L84.2085 100.135C87.5362 103.462 92.9316 103.462 96.2593 100.135C99.587 96.8068 99.587 91.4115 96.2593 88.0838L70.1941 62.0186C64.3362 56.1607 64.3362 46.6632 70.1941 40.8054L96.816 14.1834C100.061 10.9387 100.061 5.67809 96.816 2.43341C93.5713 -0.811264 88.3107 -0.811264 85.066 2.43341L46.3933 41.1061Z" fill="white"/>
<path fill-rule="evenodd" clip-rule="evenodd" d="M48.5146 60.198L86.3298 98.0133C88.486 100.169 91.9818 100.169 94.138 98.0133C96.2941 95.8571 96.2941 92.3613 94.138 90.2051L68.0727 64.1399C61.0433 57.1105 61.0433 45.7135 68.0727 38.684L94.6947 12.0621C96.7678 9.98899 96.7678 6.62783 94.6947 4.55473C92.6216 2.48163 89.2604 2.48163 87.1873 4.55473L48.5146 43.2275C43.8283 47.9137 43.8283 55.5117 48.5146 60.198ZM46.3933 62.3193C40.5354 56.4615 40.5354 46.964 46.3933 41.1061L85.066 2.43341C88.3107 -0.811264 93.5713 -0.811264 96.816 2.43341C100.061 5.67809 100.061 10.9387 96.816 14.1834L70.1941 40.8054C64.3362 46.6632 64.3362 56.1607 70.1941 62.0186L96.2593 88.0838C99.587 91.4115 99.587 96.8068 96.2593 100.135C92.9316 103.462 87.5362 103.462 84.2085 100.135L46.3933 62.3193Z" fill="black"/>
<path fill-rule="evenodd" clip-rule="evenodd" d="M25.3933 41.1061C19.5354 46.964 19.5354 56.4615 25.3933 62.3193L63.2085 100.135C66.5362 103.462 71.9316 103.462 75.2593 100.135C78.587 96.8068 78.587 91.4115 75.2593 88.0838L49.1941 62.0186C43.3362 56.1607 43.3362 46.6632 49.1941 40.8054L75.816 14.1834C79.0607 10.9387 79.0607 5.67809 75.816 2.43341C72.5713 -0.811264 67.3107 -0.811264 64.066 2.43341L25.3933 41.1061Z" fill="white"/>
<path fill-rule="evenodd" clip-rule="evenodd" d="M27.5146 60.198L65.3298 98.0133C67.486 100.169 70.9818 100.169 73.138 98.0133C75.2941 95.8571 75.2941 92.3613 73.138 90.2051L47.0727 64.1399C40.0433 57.1105 40.0433 45.7135 47.0727 38.684L73.6947 12.0621C75.7678 9.98899 75.7678 6.62783 73.6947 4.55473C71.6216 2.48163 68.2604 2.48163 66.1873 4.55473L27.5146 43.2275C22.8283 47.9137 22.8283 55.5117 27.5146 60.198ZM25.3933 62.3193C19.5354 56.4615 19.5354 46.964 25.3933 41.1061L64.066 2.43341C67.3107 -0.811264 72.5713 -0.811264 75.816 2.43341C79.0607 5.67809 79.0607 10.9387 75.816 14.1834L49.1941 40.8054C43.3362 46.6632 43.3362 56.1607 49.1941 62.0186L75.2593 88.0838C78.587 91.4115 78.587 96.8068 75.2593 100.135C71.9316 103.462 66.5362 103.462 63.2085 100.135L25.3933 62.3193Z" fill="black"/>
<path fill-rule="evenodd" clip-rule="evenodd" d="M4.39328 41.1061C-1.46459 46.964 -1.46459 56.4615 4.39328 62.3193L42.2085 100.135C45.5362 103.462 50.9316 103.462 54.2593 100.135C57.587 96.8068 57.587 91.4115 54.2593 88.0838L28.1941 62.0186C22.3362 56.1607 22.3362 46.6632 28.1941 40.8054L54.816 14.1834C58.0607 10.9387 58.0607 5.67809 54.816 2.43341C51.5713 -0.811264 46.3107 -0.811264 43.066 2.43341L4.39328 41.1061Z" fill="white"/>
<path fill-rule="evenodd" clip-rule="evenodd" d="M6.5146 60.198L44.3298 98.0133C46.486 100.169 49.9818 100.169 52.138 98.0133C54.2941 95.8571 54.2941 92.3613 52.138 90.2051L26.0727 64.1399C19.0433 57.1105 19.0433 45.7135 26.0727 38.684L52.6947 12.0621C54.7678 9.98899 54.7678 6.62783 52.6947 4.55473C50.6216 2.48163 47.2604 2.48163 45.1873 4.55473L6.5146 43.2275C1.82831 47.9137 1.82831 55.5117 6.5146 60.198ZM4.39328 62.3193C-1.46459 56.4615 -1.46459 46.964 4.39328 41.1061L43.066 2.43341C46.3107 -0.811264 51.5713 -0.811264 54.816 2.43341C58.0607 5.67809 58.0607 10.9387 54.816 14.1834L28.1941 40.8054C22.3362 46.6632 22.3362 56.1607 28.1941 62.0186L54.2593 88.0838C57.587 91.4115 57.587 96.8068 54.2593 100.135C50.9316 103.462 45.5362 103.462 42.2085 100.135L4.39328 62.3193Z" fill="black"/>
</svg>
