<svg width="101" height="120" viewBox="0 0 101 120" fill="none" xmlns="http://www.w3.org/2000/svg">
<path fill-rule="evenodd" clip-rule="evenodd" d="M39.9802 47.8664C39.7 48.1147 39.4268 48.3754 39.1615 48.6483L14.4239 74.0903C11.1251 77.4829 5.67655 77.4829 2.37784 74.0903C-0.792453 70.8297 -0.792452 65.6384 2.37785 62.3778L38.8691 24.8475C40.8715 22.788 43.3176 21.4287 45.9057 20.7696C47.0724 20.2741 48.3559 20 49.7034 20C51.1482 20 52.5195 20.3152 53.7522 20.8805C56.1878 21.575 58.4818 22.8974 60.3779 24.8475L97.6988 63.2311C100.79 66.4103 100.79 71.4721 97.6988 74.6513C94.4824 77.9592 89.1698 77.9592 85.9534 74.6513L60.6703 48.6483C60.2725 48.2391 59.8571 47.8575 59.4265 47.5036L59.4265 110.277C59.4265 115.647 55.0733 120 49.7034 120C44.3334 120 39.9802 115.647 39.9802 110.277L39.9802 47.8664Z" fill="white"/>
<path fill-rule="evenodd" clip-rule="evenodd" d="M42.9802 41.1998L42.9802 110.277C42.9802 113.99 45.9903 117 49.7034 117C53.4165 117 56.4265 113.99 56.4265 110.277L56.4265 41.154L61.3316 45.1861C61.848 45.6106 62.3455 46.0677 62.8212 46.5569L88.1043 72.5599C90.1427 74.6564 93.5095 74.6564 95.5479 72.5599C97.5069 70.5451 97.5069 67.3372 95.5479 65.3224L58.227 26.9388C56.7062 25.3747 54.8741 24.32 52.9295 23.7655L52.7095 23.7027L52.5016 23.6074C51.6533 23.2184 50.7079 23 49.7034 23C48.7661 23 47.881 23.1901 47.0784 23.5309L46.8678 23.6203L46.6461 23.6768C44.5791 24.2032 42.6256 25.2875 41.02 26.9388L4.52873 64.4691C2.49059 66.5653 2.49059 69.9028 4.52873 71.999C6.64943 74.1801 10.1523 74.1801 12.273 71.999L37.0106 46.5569C37.3278 46.2307 37.6548 45.9187 37.9906 45.6211L42.9802 41.1998ZM39.9802 47.8664C39.7 48.1147 39.4268 48.3754 39.1615 48.6483L14.4239 74.0903C11.1251 77.4829 5.67655 77.4829 2.37784 74.0903C-0.792453 70.8297 -0.792452 65.6384 2.37785 62.3778L38.8691 24.8475C40.8715 22.788 43.3176 21.4287 45.9057 20.7696C47.0724 20.2741 48.3559 20 49.7034 20C51.1482 20 52.5195 20.3152 53.7522 20.8805C56.1878 21.575 58.4818 22.8974 60.3779 24.8475L97.6988 63.2311C100.79 66.4103 100.79 71.4721 97.6988 74.6513C94.4824 77.9592 89.1698 77.9592 85.9534 74.6513L60.6703 48.6483C60.2725 48.2391 59.8571 47.8575 59.4265 47.5036L59.4265 110.277C59.4265 115.647 55.0733 120 49.7034 120C44.3334 120 39.9802 115.647 39.9802 110.277L39.9802 47.8664Z" fill="black"/>
<path d="M100.22 8C100.22 12.4183 96.6385 16 92.2202 16L8.22021 16C3.80193 16 0.220215 12.4183 0.220215 8C0.220215 3.58172 3.80193 0 8.22021 0L92.2202 0C96.6385 0 100.22 3.58172 100.22 8Z" fill="white"/>
<path fill-rule="evenodd" clip-rule="evenodd" d="M8.22021 13L92.2202 13C94.9816 13 97.2202 10.7614 97.2202 8C97.2202 5.23858 94.9816 3 92.2202 3L8.22021 3C5.45879 3 3.22021 5.23858 3.22021 8C3.22021 10.7614 5.45879 13 8.22021 13ZM92.2202 16C96.6385 16 100.22 12.4183 100.22 8C100.22 3.58172 96.6385 0 92.2202 0L8.22021 0C3.80193 0 0.220215 3.58172 0.220215 8C0.220215 12.4183 3.80193 16 8.22021 16L92.2202 16Z" fill="black"/>
</svg>
